<svg xmlns="http://www.w3.org/2000/svg"
     width="512" height="512" viewBox="0 0 512 512">

    <defs>
        <linearGradient id="b1" x1="30%" y1="0%" x2="70%" y2="100%">
            <stop offset="0%" stop-color="#0d9488"/>
            <stop offset="100%" stop-color="#115e59"/>
        </linearGradient>
        <linearGradient id="b2" x1="30%" y1="0%" x2="70%" y2="100%">
            <stop offset="0%" stop-color="#fafaf9"/>
            <stop offset="100%" stop-color="#e7e5e4"/>
        </linearGradient>
    </defs>

    <rect width="512" height="512" fill="#f5f5f4" />
    <g transform="translate(256 256) scale(.9) translate(-256 -256)">
        <path fill="url(#b2)" stroke="none"
              d="M256 24a232 232 0 0 1 0 464a232 232 0 0 1 0-464"/>
        <path fill="url(#b1)" fill-rule="evenodd" stroke="none"
              d="M256 512a256 256 0 0 0 0 -512v24a232 232 0 0 1 0 464v24a256 256 0 0 1 0-512v24a71 71 0 0 0 0 142a90 90 0 0 0 0 180a71 71 0 0 1 0 142zM256 24a71 71 0 0 1 71 71a20 20 0 0 1-40 0a65 135 30 0 0-31-71zm0 142a90 90 0 0 1 0 180a45 45 0 0 1 0-90a45 45 0 0 0 0-90zM256 488a71 71 0 0 1-71-71a20 20 0 0 1 40 0a65 135 30 0 0 31 71z"/>
    </g>
</svg>
